<svg width="48" height="46" viewBox="0 0 48 46" fill="none" xmlns="http://www.w3.org/2000/svg">
<path d="M38.2502 0.25H24.8125L33.363 11.6514L38.2502 0.25Z" fill="url(#paint0_linear)"/>
<path d="M9.74976 0.25L14.637 11.6514L23.1875 0.25H9.74976Z" fill="url(#paint1_linear)"/>
<path d="M24 4.58367L17.5 13.25H30.5L24 4.58367Z" fill="url(#paint2_linear)"/>
<path d="M40.9559 2.18579L36.2139 13.25H47.5625L40.9559 2.18579Z" fill="url(#paint3_linear)"/>
<path d="M7.04414 2.18579L0.335938 13.25H11.7861L7.04414 2.18579Z" fill="url(#paint4_linear)"/>
<path d="M12.8972 16.5H0.4375L23.0656 45.75H23.1195L12.8972 16.5Z" fill="url(#paint5_linear)"/>
<path d="M35.1028 16.5L24.8805 45.75H24.9344L47.5625 16.5H35.1028Z" fill="url(#paint6_linear)"/>
<path d="M31.4537 16.5H16.5463L24 37.625L31.4537 16.5Z" fill="url(#paint7_linear)"/>
<defs>
<linearGradient id="paint0_linear" x1="-2.23383" y1="1.15958" x2="38.1485" y2="48.0064" gradientUnits="userSpaceOnUse">
<stop stop-color="#8B39FF"/>
<stop offset="1" stop-color="#FB39FF"/>
</linearGradient>
<linearGradient id="paint1_linear" x1="-2.23383" y1="1.15958" x2="38.1485" y2="48.0064" gradientUnits="userSpaceOnUse">
<stop stop-color="#8B39FF"/>
<stop offset="1" stop-color="#FB39FF"/>
</linearGradient>
<linearGradient id="paint2_linear" x1="-2.23383" y1="1.15958" x2="38.1485" y2="48.0064" gradientUnits="userSpaceOnUse">
<stop stop-color="#8B39FF"/>
<stop offset="1" stop-color="#FB39FF"/>
</linearGradient>
<linearGradient id="paint3_linear" x1="-2.23383" y1="1.15958" x2="38.1485" y2="48.0064" gradientUnits="userSpaceOnUse">
<stop stop-color="#8B39FF"/>
<stop offset="1" stop-color="#FB39FF"/>
</linearGradient>
<linearGradient id="paint4_linear" x1="-2.23383" y1="1.15958" x2="38.1485" y2="48.0064" gradientUnits="userSpaceOnUse">
<stop stop-color="#8B39FF"/>
<stop offset="1" stop-color="#FB39FF"/>
</linearGradient>
<linearGradient id="paint5_linear" x1="-2.23383" y1="1.15958" x2="38.1485" y2="48.0064" gradientUnits="userSpaceOnUse">
<stop stop-color="#8B39FF"/>
<stop offset="1" stop-color="#FB39FF"/>
</linearGradient>
<linearGradient id="paint6_linear" x1="-2.23383" y1="1.15958" x2="38.1485" y2="48.0064" gradientUnits="userSpaceOnUse">
<stop stop-color="#8B39FF"/>
<stop offset="1" stop-color="#FB39FF"/>
</linearGradient>
<linearGradient id="paint7_linear" x1="-2.23383" y1="1.15958" x2="38.1485" y2="48.0064" gradientUnits="userSpaceOnUse">
<stop stop-color="#8B39FF"/>
<stop offset="1" stop-color="#FB39FF"/>
</linearGradient>
</defs>
</svg>
