<svg width="50" height="44" viewBox="0 0 50 44" fill="none" xmlns="http://www.w3.org/2000/svg">
<path d="M9.9925 23.9092L0.833328 14.75C0.833328 14.75 10.5 0.25 25 0.25C39.5 0.25 49.1667 14.75 49.1667 14.75L40.0075 23.9092L25 8.92583L9.9925 23.9092ZM28.625 36.5H21.375V41.3333L25 43.75L28.625 41.3333V36.5ZM36.5758 27.3408L30.3167 33.6C28.8667 32.4158 27.03 31.6667 25 31.6667C22.97 31.6667 21.1333 32.4158 19.6833 33.6L13.4242 27.3408L25 15.7408L36.5758 27.3408ZM27.4167 26.8333C27.4167 25.5042 26.3292 24.4167 25 24.4167C23.6708 24.4167 22.5833 25.5042 22.5833 26.8333C22.5833 28.1625 23.6708 29.25 25 29.25C26.3292 29.25 27.4167 28.1625 27.4167 26.8333Z" fill="url(#paint0_linear)"/>
<defs>
<linearGradient id="paint0_linear" x1="-1.79666" y1="1.1196" x2="36.3389" y2="48.4785" gradientUnits="userSpaceOnUse">
<stop stop-color="#8B39FF"/>
<stop offset="1" stop-color="#FB39FF"/>
</linearGradient>
</defs>
</svg>
