<svg width="46" height="43" viewBox="0 0 46 43" fill="none" xmlns="http://www.w3.org/2000/svg">
<path d="M44.5132 15.1415L30.7233 13.1797L24.5589 0.946364C24.3905 0.611422 24.1135 0.340278 23.7713 0.175465C22.9132 -0.239225 21.8704 0.10635 21.4413 0.946364L15.2769 13.1797L1.48699 15.1415C1.1068 15.1947 0.759202 15.3701 0.493071 15.636C0.171334 15.9597 -0.00595757 16.3952 0.000152867 16.8468C0.0062633 17.2984 0.195276 17.7291 0.525659 18.0444L10.5028 27.5663L8.14568 41.0118C8.09041 41.3246 8.12576 41.6463 8.24775 41.9404C8.36973 42.2345 8.57345 42.4892 8.83582 42.6758C9.09819 42.8623 9.4087 42.9731 9.73214 42.9957C10.0556 43.0183 10.379 42.9517 10.6658 42.8035L23.0001 36.4555L35.3344 42.8035C35.6712 42.9789 36.0622 43.0374 36.437 42.9736C37.382 42.8141 38.0175 41.9369 37.8545 41.0118L35.4974 27.5663L45.4746 18.0444C45.7461 17.7838 45.9254 17.4436 45.9797 17.0714C46.1263 16.141 45.4637 15.2798 44.5132 15.1415Z" fill="url(#paint0_linear)"/>
<defs>
<linearGradient id="paint0_linear" x1="-2.50302" y1="0.859607" x2="35.4741" y2="46.2668" gradientUnits="userSpaceOnUse">
<stop stop-color="#8B39FF"/>
<stop offset="1" stop-color="#FB39FF"/>
</linearGradient>
</defs>
</svg>
