<svg width="17" height="19" viewBox="0 0 17 19" fill="none" xmlns="http://www.w3.org/2000/svg">
<path d="M9.47325 0.399152C9.21022 0.142823 8.86197 0 8.5 0C8.13803 0 7.78978 0.142823 7.52675 0.399152L0.664418 7.08424C0.4543 7.2892 0.286991 7.53621 0.172743 7.81016C0.0584957 8.0841 -0.00028556 8.37921 1.04302e-06 8.67739V16.8111C0.000376603 17.3917 0.224426 17.9485 0.6229 18.359C1.02137 18.7694 1.56166 19 2.125 19H4.25C4.81359 19 5.35409 18.7692 5.7526 18.3584C6.15112 17.9477 6.375 17.3905 6.375 16.8096V13.1589C6.375 12.9653 6.44963 12.7796 6.58247 12.6427C6.7153 12.5057 6.89547 12.4288 7.08333 12.4288H9.91667C10.1045 12.4288 10.2847 12.5057 10.4175 12.6427C10.5504 12.7796 10.625 12.9653 10.625 13.1589V16.8096C10.625 17.3905 10.8489 17.9477 11.2474 18.3584C11.6459 18.7692 12.1864 19 12.75 19H14.875C15.4386 19 15.9791 18.7692 16.3776 18.3584C16.7761 17.9477 17 17.3905 17 16.8096V8.67593C16.9999 8.37789 16.9408 8.083 16.8263 7.80931C16.7118 7.53562 16.5444 7.2889 16.3342 7.08424L9.47325 0.396232V0.399152Z" fill="url(#paint0_linear)"/>
<defs>
<linearGradient id="paint0_linear" x1="-0.92503" y1="0.379826" x2="16.1242" y2="17.4294" gradientUnits="userSpaceOnUse">
<stop stop-color="#8B39FF"/>
<stop offset="1" stop-color="#FB39FF"/>
</linearGradient>
</defs>
</svg>
