<svg width="59" height="41" viewBox="0 0 59 41" fill="none" xmlns="http://www.w3.org/2000/svg">
<rect x="0.5" y="0.5" width="57.9402" height="39.6968" rx="3.5" fill="white" stroke="#F3F3F3"/>
<path fill-rule="evenodd" clip-rule="evenodd" d="M21.5934 31.4286V32.9312V34.4338H20.9356V34.069C20.727 34.3396 20.4104 34.5094 19.9801 34.5094C19.1318 34.5094 18.4668 33.8495 18.4668 32.9312C18.4668 32.0137 19.1318 31.3531 19.9801 31.3531C20.4104 31.3531 20.727 31.5229 20.9356 31.7935V31.4286H21.5934ZM20.062 31.9691C19.4925 31.9691 19.1441 32.403 19.1441 32.9312C19.1441 33.4595 19.4925 33.8934 20.062 33.8934C20.606 33.8934 20.9733 33.4782 20.9733 32.9312C20.9733 32.3843 20.606 31.9691 20.062 31.9691ZM43.8218 32.9312C43.8218 32.403 44.1703 31.9691 44.7397 31.9691C45.2845 31.9691 45.651 32.3843 45.651 32.9312C45.651 33.4782 45.2845 33.8934 44.7397 33.8934C44.1703 33.8934 43.8218 33.4595 43.8218 32.9312ZM46.2719 30.2218V32.9312V34.4338H45.6134V34.069C45.4047 34.3396 45.0881 34.5094 44.6578 34.5094C43.8095 34.5094 43.1445 33.8495 43.1445 32.9312C43.1445 32.0137 43.8095 31.3531 44.6578 31.3531C45.0881 31.3531 45.4047 31.5229 45.6134 31.7935V30.2218H46.2719ZM29.7585 31.9381C30.1823 31.9381 30.4546 32.2023 30.5242 32.6671H28.9543C29.0246 32.2332 29.2898 31.9381 29.7585 31.9381ZM28.2647 32.9312C28.2647 31.9943 28.8848 31.3531 29.7715 31.3531C30.6191 31.3531 31.2015 31.9943 31.208 32.9312C31.208 33.019 31.2015 33.1011 31.195 33.1824H28.9485C29.0434 33.7236 29.4296 33.9186 29.8534 33.9186C30.1569 33.9186 30.48 33.8049 30.7335 33.6041L31.0559 34.0884C30.6886 34.3964 30.2714 34.5094 29.8157 34.5094C28.9102 34.5094 28.2647 33.8869 28.2647 32.9312ZM37.7142 32.9312C37.7142 32.403 38.0626 31.9691 38.632 31.9691C39.1761 31.9691 39.5434 32.3843 39.5434 32.9312C39.5434 33.4782 39.1761 33.8934 38.632 33.8934C38.0626 33.8934 37.7142 33.4595 37.7142 32.9312ZM40.1635 31.4286V32.9312V34.4338H39.5057V34.069C39.2963 34.3396 38.9805 34.5094 38.5502 34.5094C37.7018 34.5094 37.0368 33.8495 37.0368 32.9312C37.0368 32.0137 37.7018 31.3531 38.5502 31.3531C38.9805 31.3531 39.2963 31.5229 39.5057 31.7935V31.4286H40.1635ZM33.9993 32.9312C33.9993 33.843 34.6382 34.5094 35.6133 34.5094C36.069 34.5094 36.3725 34.4087 36.7014 34.151L36.3856 33.6228C36.1385 33.7991 35.8792 33.8934 35.5938 33.8934C35.0685 33.8869 34.6824 33.5098 34.6824 32.9312C34.6824 32.3527 35.0685 31.9756 35.5938 31.9691C35.8792 31.9691 36.1385 32.0634 36.3856 32.2397L36.7014 31.7115C36.3725 31.4538 36.069 31.3531 35.6133 31.3531C34.6382 31.3531 33.9993 32.0195 33.9993 32.9312ZM41.6826 31.7935C41.8536 31.5294 42.1006 31.3531 42.4802 31.3531C42.6135 31.3531 42.8033 31.3783 42.9489 31.4351L42.7461 32.0511C42.607 31.9943 42.4679 31.9756 42.3346 31.9756C41.9043 31.9756 41.6891 32.2519 41.6891 32.7492V34.4338H41.0306V31.4286H41.6826V31.7935ZM24.8468 31.6676C24.5302 31.4603 24.0941 31.3531 23.6131 31.3531C22.8467 31.3531 22.3533 31.7179 22.3533 32.3152C22.3533 32.8053 22.7206 33.1076 23.3972 33.2018L23.708 33.2457C24.0688 33.2961 24.239 33.3904 24.239 33.5602C24.239 33.7926 23.9985 33.9251 23.5494 33.9251C23.0937 33.9251 22.7648 33.7804 22.5431 33.6106L22.2331 34.1194C22.5938 34.3835 23.0495 34.5094 23.5428 34.5094C24.4165 34.5094 24.9229 34.1006 24.9229 33.5285C24.9229 33.0003 24.5244 32.724 23.8659 32.6297L23.5559 32.5851C23.2712 32.5477 23.043 32.4915 23.043 32.29C23.043 32.0698 23.2581 31.9381 23.6189 31.9381C24.005 31.9381 24.3788 32.0828 24.5621 32.1958L24.8468 31.6676ZM32.5374 31.7935C32.7076 31.5294 32.9546 31.3531 33.3343 31.3531C33.4675 31.3531 33.6573 31.3783 33.803 31.4351L33.6001 32.0511C33.461 31.9943 33.3219 31.9756 33.1886 31.9756C32.7583 31.9756 32.5432 32.2519 32.5432 32.7492V34.4338H31.8854V31.4286H32.5374V31.7935ZM27.7206 31.4286H26.6449V30.5169H25.9798V31.4286H25.3662V32.0259H25.9798V33.3968C25.9798 34.0942 26.2522 34.5094 27.0303 34.5094C27.3157 34.5094 27.6446 34.4216 27.8532 34.277L27.6634 33.7171C27.4671 33.8301 27.2519 33.8869 27.081 33.8869C26.7521 33.8869 26.6449 33.6854 26.6449 33.3839V32.0259H27.7206V31.4286ZM17.885 32.5477V34.4338H17.22V32.7614C17.22 32.2519 17.0049 31.9691 16.5557 31.9691C16.1189 31.9691 15.8153 32.2462 15.8153 32.7679V34.4338H15.1503V32.7614C15.1503 32.2519 14.9294 31.9691 14.4925 31.9691C14.0427 31.9691 13.7514 32.2462 13.7514 32.7679V34.4338H13.0871V31.4286H13.7456V31.7993C13.9927 31.4474 14.3085 31.3531 14.6316 31.3531C15.0938 31.3531 15.4227 31.5546 15.6313 31.8878C15.9102 31.4661 16.3087 31.3466 16.6948 31.3531C17.4294 31.3596 17.885 31.8374 17.885 32.5477Z" fill="#231F20"/>
<path d="M34.5984 26.3223H24.6288V8.52429H34.5984V26.3223Z" fill="#FF5F00"/>
<path d="M25.2613 17.4236C25.2613 13.8132 26.9629 10.5971 29.6129 8.52457C27.6751 7.00902 25.2294 6.10444 22.5714 6.10444C16.279 6.10444 11.1783 11.1721 11.1783 17.4236C11.1783 23.675 16.279 28.7427 22.5714 28.7427C25.2294 28.7427 27.6751 27.8381 29.6129 26.3225C26.9629 24.25 25.2613 21.034 25.2613 17.4236Z" fill="#EB001B"/>
<path d="M48.0482 17.4236C48.0482 23.675 42.9475 28.7427 36.6551 28.7427C33.9971 28.7427 31.5515 27.8381 29.6129 26.3225C32.2636 24.25 33.9653 21.034 33.9653 17.4236C33.9653 13.8132 32.2636 10.5971 29.6129 8.52457C31.5515 7.00902 33.9971 6.10444 36.6551 6.10444C42.9475 6.10444 48.0482 11.1721 48.0482 17.4236Z" fill="#F79E1B"/>
</svg>
