<svg width="35" height="35" viewBox="0 0 35 35" fill="none" xmlns="http://www.w3.org/2000/svg">
<g clip-path="url(#clip0)">
<path d="M17.9327 0C22.4592 0 26.8003 1.79816 30.0011 4.9989C33.2018 8.19964 35 12.5408 35 17.0673C35 21.5938 33.2018 25.935 30.0011 29.1357C26.8003 32.3365 22.4592 34.1346 17.9327 34.1346C13.4061 34.1346 9.065 32.3365 5.86426 29.1357C2.66351 25.935 0.865356 21.5938 0.865356 17.0673C0.865356 12.5408 2.66351 8.19964 5.86426 4.9989C9.065 1.79816 13.4061 0 17.9327 0V0ZM10.4657 16.0006C10.1828 16.0006 9.91149 16.113 9.71144 16.313C9.5114 16.5131 9.39901 16.7844 9.39901 17.0673C9.39901 17.3502 9.5114 17.6215 9.71144 17.8216C9.91149 18.0216 10.1828 18.134 10.4657 18.134H22.8246L18.2441 22.7123C18.145 22.8115 18.0663 22.9292 18.0126 23.0588C17.9589 23.1884 17.9313 23.3273 17.9313 23.4675C17.9313 23.6078 17.9589 23.7467 18.0126 23.8763C18.0663 24.0059 18.145 24.1236 18.2441 24.2228C18.3433 24.322 18.4611 24.4006 18.5906 24.4543C18.7202 24.508 18.8591 24.5356 18.9994 24.5356C19.1396 24.5356 19.2785 24.508 19.4081 24.4543C19.5377 24.4006 19.6554 24.322 19.7546 24.2228L26.1548 17.8225C26.2542 17.7234 26.333 17.6057 26.3868 17.4761C26.4405 17.3465 26.4682 17.2076 26.4682 17.0673C26.4682 16.927 26.4405 16.7881 26.3868 16.6585C26.333 16.5289 26.2542 16.4112 26.1548 16.3121L19.7546 9.91184C19.6554 9.81266 19.5377 9.73399 19.4081 9.68031C19.2785 9.62664 19.1396 9.59901 18.9994 9.59901C18.8591 9.59901 18.7202 9.62664 18.5906 9.68031C18.4611 9.73399 18.3433 9.81266 18.2441 9.91184C18.145 10.011 18.0663 10.1288 18.0126 10.2583C17.9589 10.3879 17.9313 10.5268 17.9313 10.6671C17.9313 10.8073 17.9589 10.9462 18.0126 11.0758C18.0663 11.2054 18.145 11.3231 18.2441 11.4223L22.8246 16.0006H10.4657Z" fill="white"/>
</g>
<defs>
<clipPath id="clip0">
<rect width="34.1346" height="34.1346" fill="white" transform="translate(0.865356)"/>
</clipPath>
</defs>
</svg>
