<svg width="50" height="46" viewBox="0 0 50 46" fill="none" xmlns="http://www.w3.org/2000/svg">
<path d="M49.2274 8.27849L37.0639 15.7852L25.4005 0.202016C25.3536 0.139296 25.2927 0.0883867 25.2227 0.0533216C25.1527 0.0182565 25.0756 0 24.9973 0C24.9191 0 24.8419 0.0182565 24.7719 0.0533216C24.702 0.0883867 24.6411 0.139296 24.5942 0.202016L12.937 15.7852L0.767242 8.27849C0.410963 8.05936 -0.0515748 8.35362 0.00467975 8.77309L4.78007 45.1235C4.84882 45.6181 5.27386 46 5.78015 46H44.227C44.727 46 45.1583 45.6244 45.2208 45.1235L49.9962 8.77309C50.0462 8.35362 49.5899 8.05936 49.2274 8.27849ZM25.0005 36.9343C21.1189 36.9343 17.9624 33.7726 17.9624 29.8846C17.9624 25.9966 21.1189 22.8349 25.0005 22.8349C28.882 22.8349 32.0385 25.9966 32.0385 29.8846C32.0385 33.7726 28.882 36.9343 25.0005 36.9343ZM25.0005 26.8606C23.3378 26.8606 21.9877 28.213 21.9877 29.8846C21.9877 31.55 23.3378 32.9086 25.0005 32.9086C26.6631 32.9086 28.0132 31.5563 28.0132 29.8846C28.0132 28.2192 26.6631 26.8606 25.0005 26.8606Z" fill="white"/>
</svg>
