<svg width="48" height="46" viewBox="0 0 48 46" fill="none" xmlns="http://www.w3.org/2000/svg">
<path d="M38.2502 0.25H24.8125L33.363 11.6514L38.2502 0.25Z" fill="white"/>
<path d="M9.74976 0.25L14.637 11.6514L23.1875 0.25H9.74976Z" fill="white"/>
<path d="M24 4.58367L17.5 13.25H30.5L24 4.58367Z" fill="white"/>
<path d="M40.9559 2.18579L36.2139 13.25H47.5625L40.9559 2.18579Z" fill="white"/>
<path d="M7.04414 2.18579L0.335938 13.25H11.7861L7.04414 2.18579Z" fill="white"/>
<path d="M12.8972 16.5H0.4375L23.0656 45.75H23.1195L12.8972 16.5Z" fill="white"/>
<path d="M35.1028 16.5L24.8805 45.75H24.9344L47.5625 16.5H35.1028Z" fill="white"/>
<path d="M31.4537 16.5H16.5463L24 37.625L31.4537 16.5Z" fill="white"/>
</svg>
