<svg id="Layer_1" enable-background="new 0 0 509.698 509.698" height="512" viewBox="0 0 509.698 509.698" width="512"
  xmlns="http://www.w3.org/2000/svg">
  <g>
    <ellipse cx="285.606" cy="44.802" rx="43.425" ry="43.425"
      transform="matrix(.466 -.885 .885 .466 112.879 276.628)" fill="white" />
    <g>
      <path
        d="m468.358 112.401c-.645-2.063-1.569-3.961-2.712-5.672-5.96 9.843-16.771 16.436-29.093 16.436-11.758 0-22.138-6.004-28.243-15.104l-36.299 11.344-70.436-17.731c-3.053-.768-6.167-1.267-9.307-1.489l-54.21-3.835c-6.629-.469-13.287.298-19.635 2.262l-67.203 20.792-68.622-17.155c-12.078-3.023-24.317 4.551-26.926 16.833-2.484 11.697 5.141 23.187 16.742 26.087l74.12 18.53c3.794.949 7.926.905 11.927-.345l47.161-14.738-7.161 98.58-76.816 58.983c-8.703 6.683-12.425 18.014-9.38 28.556l9.265 32.068c3.618-7.527 8.11-14.557 13.34-20.963-6.562-4.457-10.555-10.926-10.555-18.361 0-18.993 24.244-28.383 44.474-23.438 4.938-8.925 16.571-14.895 30.832-14.895 6.596 0 12.627 1.279 17.697 3.534 6.028-5.25 15.081-8.478 25.56-8.478 10.438 0 19.461 3.203 25.488 8.416l21.755.271 50.495 43.216-15.642 87.263c-2.599 14.499 7.048 28.359 21.546 30.958 14.527 2.6 28.364-7.075 30.958-21.546l18.337-102.299c1.669-9.314-1.721-18.815-8.91-24.968l-74.908-64.11 5.36-90.198 49.967 12.492c3.794.949 7.926.905 11.927-.345l74.633-23.323c11.628-3.632 18.107-16.002 14.474-27.628z" fill="white" />
    </g>
    <path
      d="m290.206 356.282c-6.764 2.187-14.329 2.613-21.194 1.574-4.785 9.186-16.567 15.37-31.078 15.37-9.188 0-17.279-2.483-23.198-6.633-18.176 10.849-49.23 5.051-54.084-14.471-5.008.296-9.71-.152-14.016-1.202-14.374 16.329-23.097 37.753-23.097 61.217 0 25.569 10.353 48.719 27.096 65.489l-8.575 13.165c-3.686 5.66-2.087 13.236 3.573 16.923 5.649 3.679 13.229 2.098 16.923-3.573l7.547-11.586c13.585 7.809 29.335 12.275 46.128 12.275 16.794 0 32.544-4.466 46.128-12.275l7.547 11.586c3.692 5.669 11.271 7.254 16.923 3.573 5.66-3.687 7.26-11.264 3.573-16.923l-8.575-13.165c16.742-16.77 27.096-39.92 27.096-65.489.002-20.976-6.97-40.322-18.717-55.855z" fill="white" />
    <path
      d="m161.835 338.978c1.961-4.367 5.459-8.117 10.078-10.928-2.919-3.206-4.826-6.996-5.449-11.162-12.616-3.467-29.153 1.403-29.153 10.59.001 8.635 13.967 12.75 24.524 11.5z" fill="white" />
    <path
      d="m173.05 347.253c0 9.564 19.442 15.474 33.125 9.163-2.426-5.679-2.18-12.199.97-17.84-.268-.14-.529-.284-.809-.416-6.704.936-14.149.496-20.868-1.715-7.299 1.787-12.418 5.953-12.418 10.808z" fill="white" />
    <path
      d="m199.622 302.142c-11.262 0-20.392 5.257-20.392 11.741s9.13 11.741 20.392 11.741c5.747 0 10.93-1.374 14.636-3.576-4.503-5.557-5.684-12.211-4.117-18.209-3.074-1.07-6.665-1.697-10.519-1.697z" fill="white" />
    <path
      d="m217.542 348.489c0 6.484 9.13 11.741 20.392 11.741 8.007 0 14.917-2.664 18.254-6.53-7.036-3.796-11.809-9.634-13.019-16.547-11.383-1.739-25.627 2.796-25.627 11.336z" fill="white" />
    <path
      d="m276.248 345.399c11.262 0 20.392-5.257 20.392-11.741s-9.13-11.741-20.392-11.741c-1.709 0-3.359.134-4.945.362-3.542 4.26-8.793 7.581-15.165 9.512-2.357 8.469 9.971 13.608 20.11 13.608z" fill="white" />
    <path
      d="m242.878 297.199c-11.262 0-20.392 5.257-20.392 11.741s9.13 11.741 20.392 11.741 20.392-5.257 20.392-11.741c.001-6.484-9.129-11.741-20.392-11.741z" fill="white" />
    <path
      d="m86.967 65.337c0-8.639-5.222-16.053-12.679-19.273-2.958 8.805-10.647 16.956-21.547 21.648-2.348 1.011-4.761 1.805-7.189 2.4 2.165 9.288 10.477 16.216 20.424 16.216 11.594-.001 20.991-9.399 20.991-20.991z" fill="white" />
    <path
      d="m415.562 89.178c0 11.593 9.398 20.991 20.991 20.991s20.991-9.398 20.991-20.991c0-3.892-1.078-7.524-2.924-10.649-5.752-2.363-10.812-5.816-14.571-10.028-13.118-2.204-24.487 7.957-24.487 20.677z" fill="white" />
    <path
      d="m61.887 34.391c-3.51-8.155-16.089-8.31-25.349-4.325-10.944 4.712-17.339 14.285-14.284 21.384 3.51 8.155 16.089 8.31 25.349 4.325 10.944-4.711 17.339-14.285 14.284-21.384z" fill="white" />
    <path
      d="m470.756 40.824c-9.772-2.67-22.171-.708-24.499 7.813-2.037 7.455 5.629 16.045 17.122 19.185 9.773 2.67 22.171.709 24.499-7.813 2.037-7.455-5.629-16.045-17.122-19.185z" fill="white" />
    <path
      d="m421.851 28.17c11.271-3.865 18.375-12.924 15.868-20.235-2.925-8.531-15.649-9.428-24.946-6.239-11.271 3.865-18.375 12.924-15.868 20.235 2.925 8.531 15.652 9.425 24.946 6.239z" fill="white" />
  </g>
</svg>