<svg width="42" height="41" viewBox="0 0 42 41" fill="none" xmlns="http://www.w3.org/2000/svg">
<g clip-path="url(#clip0)">
<path d="M26.8912 0H14.3054C2.82031 0 0.0976562 2.72266 0.0976562 14.2078V26.7935C0.0976562 38.2786 2.82031 41.0013 14.3054 41.0013H26.8912C38.3763 41.0013 41.0989 38.2786 41.0989 26.7935V14.2078C41.0989 2.72266 38.3494 0 26.8912 0ZM33.1975 29.2484H30.2211C29.0936 29.2484 28.7464 28.3541 26.7182 26.2989C24.9565 24.591 24.1762 24.3643 23.7418 24.3643C23.1281 24.3643 22.9539 24.5372 22.9539 25.379V28.0683C22.9539 28.7897 22.7271 29.2228 20.818 29.2228C17.661 29.2228 14.1581 27.3137 11.7019 23.7569C7.99784 18.5448 6.98437 14.6408 6.98437 13.8337C6.98437 13.3993 7.15734 12.9932 7.99144 12.9932H10.9742C11.7288 12.9932 12.0158 13.3404 12.3092 14.1476C13.784 18.4052 16.2401 22.1349 17.2536 22.1349C17.6277 22.1349 17.8007 21.9619 17.8007 21.0074V16.6101C17.6867 14.5819 16.6194 14.4077 16.6194 13.6876C16.6194 13.3404 16.9064 12.9932 17.3663 12.9932H22.057C22.6912 12.9932 22.9244 13.3404 22.9244 14.0873V20.0195C22.9244 20.6602 23.2114 20.8869 23.3844 20.8869C23.7585 20.8869 24.0788 20.6602 24.772 19.9657C26.9142 17.5634 28.4492 13.8593 28.4492 13.8593C28.649 13.4249 28.9962 13.0188 29.7509 13.0188H32.7337C33.628 13.0188 33.8278 13.4788 33.628 14.1194C33.2538 15.8542 29.6036 21.0061 29.6036 21.0061C29.2897 21.5263 29.1692 21.7531 29.6036 22.3335C29.9239 22.7678 30.9655 23.6685 31.6587 24.4757C32.9335 25.9235 33.9137 27.1382 34.1751 27.9787C34.4685 28.8127 34.0354 29.2471 33.1936 29.2471L33.1975 29.2484Z" fill="#298AF1"/>
</g>
<defs>
<clipPath id="clip0">
<rect width="41" height="41" fill="white" transform="translate(0.0986328)"/>
</clipPath>
</defs>
</svg>
