<svg width="83" height="83" viewBox="0 0 83 83" fill="none" xmlns="http://www.w3.org/2000/svg">
<path d="M41.5 67.4375C60.1264 67.4375 75.2188 52.3451 75.2188 33.7188C75.2188 15.0924 60.1264 0 41.5 0C22.8736 0 7.78125 15.0924 7.78125 33.7188C7.78125 52.3451 22.8736 67.4375 41.5 67.4375ZM37.9012 15.7895V13.066C37.9012 11.5746 39.1008 10.375 40.5922 10.375H42.3916C43.883 10.375 45.0826 11.5746 45.0826 13.066V15.8219C47.5953 15.9516 50.027 16.8107 52.0533 18.3184C52.9611 18.983 53.0584 20.3123 52.2478 21.0904L49.6055 23.6031C48.9895 24.2029 48.0654 24.2191 47.3359 23.7652C46.4605 23.2141 45.4879 22.9385 44.4504 22.9385H38.1443C36.6854 22.9385 35.502 24.2678 35.502 25.9051C35.502 27.2344 36.3125 28.4178 37.4635 28.7582L47.5629 31.7896C51.7291 33.0379 54.6471 37.042 54.6471 41.5324C54.6471 47.0441 50.3674 51.5021 45.0664 51.648V54.3715C45.0664 55.8629 43.8668 57.0625 42.3754 57.0625H40.576C39.0846 57.0625 37.885 55.8629 37.885 54.3715V51.6156C35.3723 51.4859 32.9406 50.6268 30.9143 49.1191C30.0064 48.4545 29.9092 47.1252 30.7197 46.3471L33.3621 43.8344C33.9781 43.2346 34.9021 43.2184 35.6316 43.6723C36.507 44.2234 37.4797 44.499 38.5172 44.499H44.8232C46.2822 44.499 47.4656 43.1697 47.4656 41.5324C47.4656 40.2031 46.6551 39.0197 45.5041 38.6793L35.4047 35.6479C31.2385 34.3996 28.3205 30.3955 28.3205 25.9051C28.3367 20.3934 32.6002 15.9354 37.9012 15.7895ZM77.8125 57.0625H72.5439C69.3666 61.2773 65.3139 64.7951 60.71 67.4375H71.0525C71.9117 67.4375 72.6088 68.0211 72.6088 68.7344V71.3281C72.6088 72.0414 71.9117 72.625 71.0525 72.625H11.9312C11.0721 72.625 10.375 72.0414 10.375 71.3281V68.7344C10.375 68.0211 11.0721 67.4375 11.9312 67.4375H22.2738C17.6699 64.7951 13.6334 61.2773 10.4398 57.0625H5.1875C2.31816 57.0625 0 59.3807 0 62.25V77.8125C0 80.6818 2.31816 83 5.1875 83H77.8125C80.6818 83 83 80.6818 83 77.8125V62.25C83 59.3807 80.6818 57.0625 77.8125 57.0625Z" fill="url(#paint0_linear)"/>
<defs>
<linearGradient id="paint0_linear" x1="-4.51632" y1="1.65924" x2="69.5033" y2="84.3887" gradientUnits="userSpaceOnUse">
<stop stop-color="#8B39FF"/>
<stop offset="1" stop-color="#FB39FF"/>
</linearGradient>
</defs>
</svg>
