<svg width="17" height="19" viewBox="0 0 17 19" fill="none" xmlns="http://www.w3.org/2000/svg">
<path d="M15.5833 0H1.41667C1.04106 0.000359288 0.680946 0.143459 0.415351 0.397895C0.149756 0.652331 0.000379903 0.997316 4.85761e-06 1.35714V10.1786C-0.00157368 11.5319 0.381598 12.86 1.10839 14.0205C1.83518 15.181 2.87815 16.1299 4.12534 16.7655L8.5 19L12.8747 16.7655C14.1219 16.1299 15.1648 15.181 15.8916 14.0205C16.6184 12.86 17.0016 11.5319 17 10.1786V1.35714C16.9996 0.997316 16.8502 0.652331 16.5847 0.397895C16.3191 0.143459 15.9589 0.000359288 15.5833 0ZM13.4583 10.8571H3.54167V9.5H13.4583V10.8571ZM13.4583 6.78571H3.54167V5.42857H13.4583V6.78571Z" fill="url(#paint0_linear)"/>
<defs>
<linearGradient id="paint0_linear" x1="-0.92503" y1="0.379826" x2="16.1242" y2="17.4294" gradientUnits="userSpaceOnUse">
<stop stop-color="#8B39FF"/>
<stop offset="1" stop-color="#FB39FF"/>
</linearGradient>
</defs>
</svg>
