<svg width="19" height="19" viewBox="0 0 19 19" fill="none" xmlns="http://www.w3.org/2000/svg">
<path d="M9.5 0C7.62108 0 5.78435 0.557165 4.22209 1.60104C2.65982 2.64491 1.44218 4.12861 0.723149 5.86451C0.00411619 7.6004 -0.184015 9.51054 0.182544 11.3534C0.549104 13.1962 1.45389 14.8889 2.78249 16.2175C4.11109 17.5461 5.80383 18.4509 7.64665 18.8175C9.48946 19.184 11.3996 18.9959 13.1355 18.2769C14.8714 17.5578 16.3551 16.3402 17.399 14.7779C18.4428 13.2156 19 11.3789 19 9.5C19 6.98044 17.9991 4.56408 16.2175 2.78248C14.4359 1.00089 12.0196 0 9.5 0ZM9.5 15.6071C9.29869 15.6071 9.1019 15.5474 8.93451 15.4356C8.76713 15.3238 8.63666 15.1648 8.55963 14.9788C8.48259 14.7928 8.46243 14.5882 8.5017 14.3907C8.54098 14.1933 8.63792 14.0119 8.78027 13.8695C8.92262 13.7272 9.10398 13.6303 9.30143 13.591C9.49887 13.5517 9.70353 13.5719 9.88952 13.6489C10.0755 13.7259 10.2345 13.8564 10.3463 14.0238C10.4582 14.1912 10.5179 14.388 10.5179 14.5893C10.5179 14.8592 10.4106 15.1181 10.2197 15.309C10.0289 15.4999 9.76995 15.6071 9.5 15.6071ZM10.2749 10.3455V12.0426H8.74815V8.82143H10.1901C10.6178 8.82143 11.028 8.65153 11.3304 8.3491C11.6328 8.04667 11.8027 7.6365 11.8027 7.2088C11.8027 6.78111 11.6328 6.37093 11.3304 6.0685C11.028 5.76608 10.6178 5.59618 10.1901 5.59618H9.17225C8.74499 5.59672 8.33539 5.76668 8.03327 6.0688C7.73115 6.37092 7.56118 6.78052 7.56065 7.20778V7.64071H6.03386V7.20778C6.03494 6.37595 6.366 5.57852 6.95439 4.99052C7.54278 4.40251 8.34042 4.07197 9.17225 4.07143H10.1901C11.0137 4.07331 11.8035 4.39893 12.3891 4.97801C12.9748 5.55709 13.3092 6.34321 13.3204 7.16672C13.3315 7.99023 13.0184 8.7851 12.4486 9.3798C11.8789 9.9745 11.0982 10.3214 10.2749 10.3455Z" fill="url(#paint0_linear)"/>
<defs>
<linearGradient id="paint0_linear" x1="-1.03386" y1="0.379826" x2="15.9104" y2="19.3179" gradientUnits="userSpaceOnUse">
<stop stop-color="#8B39FF"/>
<stop offset="1" stop-color="#FB39FF"/>
</linearGradient>
</defs>
</svg>
