<svg width="114" height="83" viewBox="0 0 114 83" fill="none" xmlns="http://www.w3.org/2000/svg">
<path d="M112.996 63.192C112.992 63.1714 112.988 63.1507 112.984 63.1301L105.32 23.5569C105.314 23.5273 105.305 23.4992 105.299 23.4697C104.113 16.9943 100.696 11.1389 95.6423 6.92054C90.5884 2.70216 84.2165 0.387321 77.6335 0.378113H77.6227L36.3774 0.499987C29.7604 0.486724 23.3516 2.81203 18.2827 7.06529C13.2138 11.3185 9.8108 17.2261 8.67472 23.7448C8.6688 23.7788 8.66333 23.8129 8.65831 23.847L1.0205 63.1273L1.00878 63.192C0.385778 66.7261 0.905562 70.3668 2.49265 73.5853C4.07973 76.8039 6.65147 79.4327 9.8344 81.0901C13.0173 82.7474 16.6457 83.347 20.1926 82.8018C23.7395 82.2565 27.0203 80.5948 29.5585 78.058C29.6263 77.9901 29.6913 77.9203 29.7535 77.8484L48.8452 56.743L65.1811 56.6778L84.2452 77.8419C84.3089 77.9156 84.376 77.9876 84.4463 78.058C86.9843 80.5951 90.2651 82.2571 93.8122 82.8026C97.3592 83.348 100.988 82.7485 104.171 81.091C107.354 79.4336 109.926 76.8046 111.513 73.5858C113.1 70.3671 113.619 66.7262 112.996 63.192ZM45.75 32.375H42V36.125C42 37.1195 41.6049 38.0734 40.9017 38.7766C40.1984 39.4799 39.2446 39.875 38.25 39.875C37.2555 39.875 36.3016 39.4799 35.5984 38.7766C34.8951 38.0734 34.5 37.1195 34.5 36.125V32.375H30.75C29.7555 32.375 28.8016 31.9799 28.0984 31.2766C27.3951 30.5734 27 29.6195 27 28.625C27 27.6304 27.3951 26.6766 28.0984 25.9733C28.8016 25.2701 29.7555 24.875 30.75 24.875H34.5V21.125C34.5 20.1304 34.8951 19.1766 35.5984 18.4733C36.3016 17.7701 37.2555 17.375 38.25 17.375C39.2446 17.375 40.1984 17.7701 40.9017 18.4733C41.6049 19.1766 42 20.1304 42 21.125V24.875H45.75C46.7446 24.875 47.6984 25.2701 48.4017 25.9733C49.1049 26.6766 49.5 27.6304 49.5 28.625C49.5 29.6195 49.1049 30.5734 48.4017 31.2766C47.6984 31.9799 46.7446 32.375 45.75 32.375ZM64.5 28.625C64.5 27.6304 64.8951 26.6766 65.5984 25.9733C66.3016 25.2701 67.2555 24.875 68.25 24.875H83.25C84.2446 24.875 85.1984 25.2701 85.9017 25.9733C86.6049 26.6766 87 27.6304 87 28.625C87 29.6195 86.6049 30.5734 85.9017 31.2766C85.1984 31.9799 84.2446 32.375 83.25 32.375H68.25C67.2555 32.375 66.3016 31.9799 65.5984 31.2766C64.8951 30.5734 64.5 29.6195 64.5 28.625ZM98.0053 75.3551C96.5386 75.6127 95.0316 75.5177 93.6088 75.0781C92.186 74.6385 90.8882 73.8668 89.8224 72.8267L75.2391 56.6375L77.6335 56.6281C82.415 56.6252 87.1168 55.4035 91.2948 53.0782C95.4729 50.753 98.9892 47.4011 101.512 43.339L105.615 64.5228C106.035 66.9674 105.471 69.479 104.045 71.5087C102.619 73.5384 100.448 74.9212 98.0053 75.3547V75.3551Z" fill="url(#paint0_linear)"/>
<defs>
<linearGradient id="paint0_linear" x1="-5.36902" y1="2.02977" x2="62.6797" y2="105.591" gradientUnits="userSpaceOnUse">
<stop stop-color="#8B39FF"/>
<stop offset="1" stop-color="#FB39FF"/>
</linearGradient>
</defs>
</svg>
