<svg width="80" height="90" viewBox="0 0 80 90" fill="none" xmlns="http://www.w3.org/2000/svg">
<path fill-rule="evenodd" clip-rule="evenodd" d="M40 0C36.1188 0 29.6332 1.49063 23.53 3.15C17.2863 4.8375 10.9919 6.83437 7.29065 8.04375C5.74317 8.55479 4.37123 9.49199 3.33244 10.7477C2.29365 12.0034 1.63015 13.5267 1.41816 15.1425C-1.93434 40.3256 5.84503 58.9894 15.2838 71.3363C19.2864 76.6179 24.0589 81.2691 29.4419 85.1344C31.6132 86.67 33.6269 87.8456 35.3369 88.65C36.9119 89.3925 38.605 90 40 90C41.395 90 43.0825 89.3925 44.6632 88.65C46.7246 87.648 48.6968 86.4719 50.5582 85.1344C55.9412 81.2692 60.7138 76.618 64.7163 71.3363C74.155 58.9894 81.9344 40.3256 78.5819 15.1425C78.3703 13.5259 77.707 12.0017 76.6682 10.7451C75.6294 9.48839 74.2573 8.55017 72.7094 8.03813C67.3364 6.27645 61.9217 4.64472 56.47 3.14438C50.3669 1.49625 43.8813 0 40 0ZM52.0713 28.9462C52.5994 28.4181 53.3157 28.1214 54.0625 28.1214C54.8094 28.1214 55.5257 28.4181 56.0538 28.9462C56.5819 29.4744 56.8786 30.1906 56.8786 30.9375C56.8786 31.6844 56.5819 32.4006 56.0538 32.9287L39.1788 49.8037C38.9175 50.0657 38.6072 50.2735 38.2655 50.4153C37.9238 50.557 37.5575 50.63 37.1875 50.63C36.8176 50.63 36.4513 50.557 36.1096 50.4153C35.7679 50.2735 35.4575 50.0657 35.1963 49.8037L26.7588 41.3662C26.4973 41.1048 26.2899 40.7943 26.1483 40.4527C26.0068 40.111 25.934 39.7448 25.934 39.375C25.934 39.0052 26.0068 38.639 26.1483 38.2973C26.2899 37.9557 26.4973 37.6452 26.7588 37.3838C27.0203 37.1223 27.3307 36.9148 27.6724 36.7733C28.014 36.6318 28.3802 36.5589 28.75 36.5589C29.1198 36.5589 29.486 36.6318 29.8277 36.7733C30.1693 36.9148 30.4798 37.1223 30.7413 37.3838L37.1875 43.8356L52.0713 28.9462Z" fill="url(#paint0_linear)"/>
<defs>
<linearGradient id="paint0_linear" x1="-3.66007" y1="1.79918" x2="77.0793" y2="80.7592" gradientUnits="userSpaceOnUse">
<stop stop-color="#8B39FF"/>
<stop offset="1" stop-color="#FB39FF"/>
</linearGradient>
</defs>
</svg>
