<svg width="94" height="96" viewBox="0 0 94 96" fill="none" xmlns="http://www.w3.org/2000/svg">
<path d="M0 48C0 74.2227 21.0363 95.4688 47 95.4688C72.9637 95.4688 94 74.2227 94 48C94 21.7773 72.9637 0.53125 47 0.53125C21.0363 0.53125 0 21.7773 0 48ZM37.9032 38.8125C37.9032 42.2004 35.1931 44.9375 31.8387 44.9375C28.4843 44.9375 25.7742 42.2004 25.7742 38.8125C25.7742 35.4246 28.4843 32.6875 31.8387 32.6875C35.1931 32.6875 37.9032 35.4246 37.9032 38.8125ZM67.9415 41.9707C65.1367 39.4441 59.1859 39.4441 56.381 41.9707L54.5806 43.5977C53.0077 45.0141 50.4871 43.6742 50.8282 41.5305C51.5863 36.707 57.3097 33.4723 62.1802 33.4723C67.0508 33.4723 72.7742 36.707 73.5323 41.5305C73.8544 43.6551 71.3718 45.0332 69.7798 43.5977L67.9415 41.9707ZM29.9056 61.3602C34.1508 66.509 40.3669 69.4375 47 69.4375C53.6331 69.4375 59.8492 66.4898 64.0944 61.3602C66.6718 58.2594 71.3149 62.1641 68.7564 65.284C63.3552 71.8109 55.4335 75.5625 47 75.5625C38.5665 75.5625 30.6448 71.8109 25.2435 65.2648C22.6851 62.1449 27.3661 58.2402 29.9056 61.3602Z" fill="url(#paint0_linear)"/>
<defs>
<linearGradient id="paint0_linear" x1="-5.11487" y1="2.42913" x2="79.6397" y2="96.2213" gradientUnits="userSpaceOnUse">
<stop stop-color="#8B39FF"/>
<stop offset="1" stop-color="#FB39FF"/>
</linearGradient>
</defs>
</svg>
