<svg width="60" height="41" viewBox="0 0 60 41" fill="none" xmlns="http://www.w3.org/2000/svg">
<rect x="0.658478" y="0.5" width="57.9402" height="39.6968" rx="3.5" fill="white" stroke="#F3F3F3"/>
<path d="M26.3276 27.9111H22.4035L24.8579 13.6665H28.7817L26.3276 27.9111Z" fill="#15195A"/>
<path d="M40.5527 14.0148C39.7787 13.7266 38.5511 13.4083 37.0331 13.4083C33.1579 13.4083 30.4291 15.3479 30.4124 18.1209C30.3802 20.1669 32.3661 21.3032 33.8515 21.9854C35.3697 22.6825 35.8857 23.1375 35.8857 23.7588C35.8703 24.7131 34.659 25.153 33.5292 25.153C31.9625 25.153 31.1231 24.9262 29.8474 24.3953L29.3306 24.1677L28.7815 27.3653C29.7019 27.7589 31.3975 28.1081 33.1579 28.1234C37.2754 28.1234 39.9559 26.2138 39.9877 23.2587C40.0034 21.6372 38.9547 20.3947 36.6938 19.3794C35.3214 18.7276 34.4808 18.2881 34.4808 17.6212C34.4969 17.015 35.1918 16.394 36.7411 16.394C38.0167 16.3636 38.954 16.6514 39.6641 16.9395L40.019 17.0907L40.5527 14.0148Z" fill="#15195A"/>
<path fill-rule="evenodd" clip-rule="evenodd" d="M47.5766 13.6665H50.6119L53.7777 27.9109H50.1443C50.1443 27.9109 49.7888 26.2742 49.6761 25.7741H44.6379C44.4922 26.1528 43.8143 27.9109 43.8143 27.9109H39.6969L45.5256 14.8484C45.9295 13.9239 46.6406 13.6665 47.5766 13.6665ZM47.3348 18.8792C47.3348 18.8792 46.0913 22.0464 45.7681 22.8647H49.0298C48.8684 22.1526 48.1253 18.7429 48.1253 18.7429L47.8511 17.5155C47.7356 17.8315 47.5686 18.2661 47.4559 18.5592C47.3796 18.7578 47.3282 18.8915 47.3348 18.8792Z" fill="#15195A"/>
<path fill-rule="evenodd" clip-rule="evenodd" d="M5.40098 13.6665H11.7144C12.5702 13.6965 13.2646 13.9541 13.4905 14.8639L14.8626 21.4087C14.8628 21.4091 14.8629 21.4095 14.863 21.41L15.283 23.38L19.1259 13.6665H23.2753L17.1073 27.896H12.9577L9.4602 15.5187C8.25346 14.8565 6.87622 14.3239 5.3364 13.9543L5.40098 13.6665Z" fill="#15195A"/>
</svg>
